<?xml version="1.0" standalone="no"?>
<!DOCTYPE svg PUBLIC "-//W3C//DTD SVG 20010904//EN"
 "http://www.w3.org/TR/2001/REC-SVG-20010904/DTD/svg10.dtd">
<svg version="1.0" xmlns="http://www.w3.org/2000/svg"
 width="230.000000pt" height="230.000000pt" viewBox="0 0 230.000000 230.000000"
 preserveAspectRatio="xMidYMid meet">
<metadata>
Created by potrace 1.14, written by Peter Selinger 2001-2017
</metadata>
<g transform="translate(0.000000,230.000000) scale(0.100000,-0.100000)"
fill="#000000" stroke="none">
<path d="M1783 2090 c-4 -15 -12 -20 -23 -17 -15 4 -18 -2 -16 -33 0 -21 -2
-36 -6 -33 -5 2 -8 -5 -8 -16 0 -10 -3 -27 -6 -35 -5 -12 -2 -15 12 -10 15 5
14 3 -3 -10 -23 -17 -34 -64 -11 -50 7 4 8 3 4 -5 -4 -6 -12 -8 -18 -5 -7 5
-9 -2 -6 -19 3 -15 2 -24 -3 -22 -4 3 -15 -21 -25 -52 -9 -32 -26 -75 -36 -96
-11 -22 -17 -45 -14 -53 3 -8 0 -13 -7 -11 -7 1 -11 -4 -9 -10 4 -21 -2 -16
-42 40 -76 104 -191 174 -326 200 -252 47 -488 -43 -683 -261 -21 -24 -35 -47
-32 -52 4 -6 1 -10 -5 -10 -6 0 -8 -5 -4 -12 4 -7 3 -8 -5 -4 -12 8 -32 -33
-23 -49 3 -5 1 -7 -3 -2 -7 6 -39 -51 -35 -61 1 -2 -6 -14 -14 -28 -9 -13 -14
-24 -10 -24 4 0 1 -6 -5 -14 -9 -11 -9 -15 1 -19 8 -4 7 -6 -4 -6 -21 -1 -23
-12 -5 -30 10 -10 9 -11 -4 -6 -12 5 -18 -2 -22 -24 -4 -17 -6 -32 -5 -34 1
-1 -4 -11 -10 -23 -8 -16 -8 -24 1 -33 9 -10 8 -11 -8 -5 -11 4 -17 4 -13 0 4
-5 2 -20 -4 -35 -5 -14 -12 -41 -14 -59 -2 -18 -5 -38 -7 -45 -1 -7 4 -11 11
-9 8 1 11 -2 7 -8 -3 -6 -10 -8 -15 -5 -4 3 -10 -5 -13 -16 -4 -16 -2 -19 11
-15 14 5 14 4 -1 -8 -13 -10 -19 -29 -20 -64 -1 -27 -5 -48 -9 -45 -7 4 -13
-38 -9 -61 1 -4 -2 -13 -7 -20 -5 -6 -12 -24 -15 -41 -3 -16 -9 -39 -13 -49
-6 -15 -4 -18 7 -12 8 4 5 0 -5 -8 -11 -9 -17 -16 -13 -16 3 0 -1 -16 -9 -36
-8 -20 -13 -38 -10 -41 3 -3 -4 -15 -15 -26 -12 -13 -16 -23 -9 -25 6 -2 2
-11 -9 -19 -12 -8 -19 -18 -16 -23 3 -5 1 -12 -5 -15 -6 -4 -22 -25 -36 -47
-21 -33 -23 -42 -12 -49 7 -5 19 -7 26 -4 7 3 11 1 8 -3 -2 -4 7 -12 20 -19
17 -8 24 -8 24 0 0 6 6 4 13 -5 15 -20 51 -33 41 -15 -4 6 2 4 14 -7 12 -10
28 -16 37 -12 9 3 13 2 10 -4 -3 -6 3 -11 14 -11 33 -2 39 -4 47 -12 4 -4 15
0 25 9 13 12 19 12 25 3 4 -7 3 -10 -4 -5 -6 3 -13 2 -16 -2 -3 -5 5 -14 19
-20 20 -9 24 -8 28 6 4 16 5 16 6 0 1 -21 22 -23 40 -5 10 10 11 9 6 -5 -6
-14 -1 -18 21 -20 27 -1 43 -3 54 -8 23 -8 125 -24 163 -25 20 0 37 -2 37 -5
0 -3 10 -5 23 -5 12 -1 37 -4 55 -8 24 -5 31 -3 26 5 -5 7 -3 8 7 3 21 -13 53
-14 61 -1 5 8 11 7 20 -2 18 -18 31 -15 24 6 -6 16 -5 16 8 -1 14 -19 62 -20
85 -3 11 8 13 8 8 -1 -10 -16 37 -10 60 8 16 13 17 13 4 -4 -12 -15 -11 -17 8
-14 13 2 27 10 33 18 8 11 9 11 4 -3 -6 -21 13 -20 32 2 8 9 11 10 7 2 -10
-20 76 -12 93 8 8 8 11 10 8 3 -5 -8 2 -11 21 -9 16 2 29 5 31 6 4 4 21 7 43
9 11 0 17 5 14 11 -4 6 1 7 11 3 10 -3 22 0 28 8 6 8 22 20 36 26 l25 12 -30
1 c-88 5 -179 43 -231 98 -112 119 -70 367 74 435 26 12 50 27 54 32 5 6 8 5
8 -2 0 -7 7 -10 15 -7 8 4 12 11 8 18 -4 6 1 5 10 -2 18 -15 41 -7 31 11 -3 7
1 4 8 -5 9 -11 19 -14 28 -8 8 5 21 5 31 -1 10 -5 29 -9 43 -9 14 0 26 -4 26
-10 0 -5 8 -10 18 -10 9 0 26 -7 36 -15 10 -8 23 -12 28 -9 5 3 8 2 7 -3 -4
-20 2 -24 18 -12 14 12 16 12 8 0 -5 -9 -2 -18 9 -27 10 -7 18 -16 19 -21 1
-4 5 -7 9 -6 4 2 5 -4 2 -12 -4 -8 -1 -15 5 -15 6 0 10 -3 9 -7 -3 -17 15 -63
26 -63 6 0 4 -5 -4 -10 -12 -8 -13 -11 -1 -19 11 -7 11 -9 0 -14 -10 -4 -10
-6 -1 -6 6 -1 12 -6 12 -12 0 -5 -4 -8 -8 -5 -4 2 -8 -10 -9 -27 -1 -18 -4
-45 -7 -60 -5 -21 -3 -27 5 -21 8 4 9 3 5 -5 -4 -6 -11 -9 -15 -6 -9 5 -34
-45 -26 -53 3 -3 5 0 5 7 0 7 5 9 10 6 10 -6 106 56 164 106 77 66 153 207
181 337 21 101 14 271 -15 347 -32 84 -78 152 -139 207 -51 46 -151 103 -198
113 -13 3 -33 7 -44 10 -12 2 -24 7 -27 10 -12 11 114 177 236 311 26 28 56
61 66 73 l20 22 -45 41 c-43 40 -131 103 -177 127 -21 11 -24 10 -29 -9z m-13
-44 c0 -3 -4 -8 -10 -11 -5 -3 -10 -1 -10 4 0 6 5 11 10 11 6 0 10 -2 10 -4z
m-1440 -1151 c-6 -8 -8 -20 -4 -27 5 -10 4 -10 -6 -1 -11 10 -11 15 0 28 7 8
15 15 17 15 3 0 0 -7 -7 -15z m1420 -95 c0 -5 -5 -10 -11 -10 -5 0 -7 5 -4 10
3 6 8 10 11 10 2 0 4 -4 4 -10z m34 -38 c3 -5 -1 -9 -9 -9 -8 0 -12 4 -9 9 3
4 7 8 9 8 2 0 6 -4 9 -8z m-1480 -451 c-2 -3 -12 3 -22 13 -16 17 -16 18 5 5
12 -7 20 -15 17 -18z m310 -69 c3 -5 -1 -9 -9 -9 -8 0 -12 4 -9 9 3 4 7 8 9 8
2 0 6 -4 9 -8z"/>
</g>
</svg>
